<svg xmlns="http://www.w3.org/2000/svg" width="1600" height="900" viewBox="0 0 1600 900">
  <defs>
    <linearGradient id="bg" x1="0" y1="0" x2="1" y2="1">
      <stop offset="0" stop-color="#ECFDF5"/>
      <stop offset="0.45" stop-color="#EFF6FF"/>
      <stop offset="1" stop-color="#FFF7ED"/>
    </linearGradient>
    <linearGradient id="ridge" x1="0" y1="0" x2="1" y2="0">
      <stop offset="0" stop-color="#0F766E" stop-opacity="0.18"/>
      <stop offset="1" stop-color="#1D4ED8" stop-opacity="0.12"/>
    </linearGradient>
    <filter id="soft" x="-20%" y="-20%" width="140%" height="140%">
      <feGaussianBlur stdDeviation="14"/>
    </filter>
  </defs>

  <rect width="1600" height="900" fill="url(#bg)"/>

  <path d="M0 640 C240 560, 420 610, 610 540 C760 485, 900 520, 1040 470 C1220 405, 1380 430, 1600 360 L1600 900 L0 900 Z" fill="url(#ridge)"/>
  <path d="M0 730 C260 680, 520 710, 760 650 C980 595, 1180 640, 1600 560 L1600 900 L0 900 Z" fill="#0F172A" opacity="0.06"/>

  <circle cx="1240" cy="220" r="110" fill="#F59E0B" opacity="0.12" filter="url(#soft)"/>
  <circle cx="360" cy="260" r="140" fill="#10B981" opacity="0.10" filter="url(#soft)"/>

  <g fill="#0F172A" opacity="0.55">
    <path d="M210 620 l80 -140 l80 140 z" opacity="0.12"/>
    <path d="M320 640 l60 -110 l60 110 z" opacity="0.10"/>
    <path d="M1250 560 l90 -160 l90 160 z" opacity="0.10"/>
  </g>

  <g font-family="ui-sans-serif, system-ui, -apple-system, Segoe UI, Roboto, Helvetica, Arial" fill="#0F172A">
    <text x="72" y="118" font-size="44" font-weight="700" opacity="0.55">Scenic drive</text>
    <text x="72" y="168" font-size="22" font-weight="600" opacity="0.45">Placeholder image (demo)</text>
  </g>
</svg>
